<svg id="Layer_2" enable-background="new 0 0 64 64" height="512" viewBox="0 0 64 64" width="512" xmlns="http://www.w3.org/2000/svg"><path d="m13.801 28.4h42.398v14.012h-42.398z" fill="#efc36a"/><path d="m56.199 42.912h-42.398c-.276 0-.5-.224-.5-.5v-14.012c0-.276.224-.5.5-.5h42.398c.276 0 .5.224.5.5v14.012c0 .276-.223.5-.5.5zm-41.898-1h41.398v-13.012h-41.398z" fill="#63312d"/><path d="m60.771 35.404c0 1.986-1.453 3.611-3.227 3.611h-45.087c-1.775 0-3.227-1.625-3.227-3.611 0-1.982 1.451-3.607 3.227-3.607h45.088c1.773 0 3.226 1.625 3.226 3.607z" fill="#db785a"/><path d="m11.56 42.412v6.078c0 1.775 1.451 3.227 3.227 3.227h40.428c1.773 0 3.227-1.451 3.227-3.227v-6.078z" fill="#db785a"/><path d="m58.441 28.4v-1.025c0-8.875-7.262-16.137-16.135-16.137h-14.611c-8.875 0-16.135 7.262-16.135 16.137v1.025z" fill="#db785a"/><path d="m57.545 39.516h-45.088c-2.055 0-3.727-1.845-3.727-4.111 0-2.265 1.672-4.107 3.727-4.107h45.088c2.055 0 3.727 1.843 3.727 4.107-.001 2.266-1.672 4.111-3.727 4.111zm-45.088-7.219c-1.504 0-2.727 1.394-2.727 3.107 0 1.716 1.223 3.111 2.727 3.111h45.088c1.504 0 2.727-1.396 2.727-3.111 0-1.714-1.223-3.107-2.727-3.107z" fill="#63312d"/><path d="m55.215 52.217h-40.428c-2.055 0-3.727-1.672-3.727-3.727v-6.078c0-.276.224-.5.5-.5h46.881c.276 0 .5.224.5.5v6.078c0 2.055-1.671 3.727-3.726 3.727zm-43.154-9.305v5.578c0 1.504 1.223 2.727 2.727 2.727h40.428c1.504 0 2.727-1.223 2.727-2.727v-5.578z" fill="#63312d"/><path d="m58.441 28.9h-46.88c-.276 0-.5-.224-.5-.5v-1.025c0-9.174 7.462-16.637 16.635-16.637h14.611c9.173 0 16.635 7.463 16.635 16.637v1.025c-.001.277-.224.5-.501.5zm-46.38-1h45.881v-.525c0-8.622-7.014-15.637-15.635-15.637h-14.612c-8.621 0-15.635 7.015-15.635 15.637v.525z" fill="#63312d"/><path d="m7.801 28.4h42.398v14.012h-42.398z" fill="#f9dd9d"/><path d="m7.801 28.4h2v14.012h-2z" fill="#ffeecf"/><path d="m50.199 42.912h-42.398c-.276 0-.5-.224-.5-.5v-14.012c0-.276.224-.5.5-.5h42.398c.276 0 .5.224.5.5v14.012c0 .276-.223.5-.5.5zm-41.898-1h41.398v-13.012h-41.398z" fill="#63312d"/><path d="m54.771 35.404c0 1.986-1.453 3.611-3.227 3.611h-45.087c-1.775 0-3.227-1.625-3.227-3.611 0-1.982 1.451-3.607 3.227-3.607h45.088c1.773 0 3.226 1.625 3.226 3.607z" fill="#f9a287"/><path d="m5.23 37.404c0-1.982 1.451-3.607 3.227-3.607h45.088c.336 0 .654.074.959.184-.496-1.281-1.637-2.184-2.959-2.184h-45.088c-1.775 0-3.227 1.625-3.227 3.607 0 1.609.959 2.967 2.268 3.428-.172-.437-.268-.92-.268-1.428z" fill="#ffc8bb"/><path d="m51.545 39.516h-45.088c-2.055 0-3.727-1.845-3.727-4.111 0-2.265 1.672-4.107 3.727-4.107h45.088c2.055 0 3.727 1.843 3.727 4.107-.001 2.266-1.672 4.111-3.727 4.111zm-45.088-7.219c-1.504 0-2.727 1.394-2.727 3.107 0 1.716 1.223 3.111 2.727 3.111h45.088c1.504 0 2.727-1.396 2.727-3.111 0-1.714-1.223-3.107-2.727-3.107z" fill="#63312d"/><path d="m5.56 42.412v6.078c0 1.775 1.451 3.227 3.227 3.227h40.428c1.773 0 3.227-1.451 3.227-3.227v-6.078z" fill="#f9a287"/><path d="m7.56 50.49v-6.078h44.881v-2h-46.881v6.078c0 1.41.922 2.602 2.188 3.039-.113-.328-.188-.674-.188-1.039z" fill="#ffc8bb"/><path d="m49.215 52.217h-40.428c-2.055 0-3.727-1.672-3.727-3.727v-6.078c0-.276.224-.5.5-.5h46.881c.276 0 .5.224.5.5v6.078c0 2.055-1.671 3.727-3.726 3.727zm-43.154-9.305v5.578c0 1.504 1.223 2.727 2.727 2.727h40.428c1.504 0 2.727-1.223 2.727-2.727v-5.578z" fill="#63312d"/><path d="m52.441 28.4v-1.025c0-8.875-7.262-16.137-16.135-16.137h-14.611c-8.875 0-16.135 7.262-16.135 16.137v1.025z" fill="#f9a287"/><path d="m23.695 13.238h14.611c3.93 0 7.539 1.43 10.346 3.787-2.965-3.529-7.404-5.787-12.346-5.787h-14.611c-8.875 0-16.135 7.262-16.135 16.137v1.025h2.049c.512-8.423 7.541-15.162 16.086-15.162z" fill="#ffc8bb"/><path d="m10.031 31.797 8.269 9.879c.82.982 2.164.982 2.984 0l8.27-9.879z" fill="#84dbff"/><path d="m33.875 31.797 5.338 6.373c.939 1.125 2.479 1.125 3.42 0l5.336-6.373z" fill="#84dbff"/><path d="m52.441 28.9h-46.88c-.276 0-.5-.224-.5-.5v-1.025c0-9.174 7.462-16.637 16.635-16.637h14.611c9.173 0 16.635 7.463 16.635 16.637v1.025c-.001.277-.224.5-.501.5zm-46.38-1h45.881v-.525c0-8.622-7.014-15.637-15.635-15.637h-14.612c-8.621 0-15.635 7.015-15.635 15.637v.525z" fill="#63312d"/><path d="m27.881 33.797 1.674-2h-19.524l1.674 2z" fill="#caf4ff"/><path d="m46.295 33.797 1.674-2h-14.094l1.676 2z" fill="#caf4ff"/><path d="m19.793 42.913c-.717 0-1.383-.326-1.876-.917l-8.27-9.878c-.124-.149-.151-.356-.069-.533.082-.176.259-.288.453-.288h19.523c.194 0 .371.112.453.288.082.177.055.384-.069.533l-8.27 9.879c-.492.59-1.158.916-1.875.916zm-8.691-10.616 7.583 9.058c.6.721 1.617.72 2.217.001l7.583-9.059z" fill="#63312d"/><path d="m40.922 39.514c-.799 0-1.542-.364-2.093-1.023l-5.338-6.372c-.124-.149-.151-.356-.069-.533.082-.176.259-.288.453-.288h14.094c.194 0 .371.112.453.288.082.177.055.384-.069.533l-5.336 6.373c-.553.658-1.296 1.022-2.095 1.022zm-5.976-7.217 4.65 5.552c.357.429.828.665 1.324.665h.001c.497 0 .969-.236 1.327-.665l4.649-5.552z" fill="#63312d"/><path d="m22.846 16.904c0 .938-.762 1.697-1.697 1.697-.939 0-1.697-.76-1.697-1.697 0-.938.758-1.699 1.697-1.699.935 0 1.697.762 1.697 1.699z" fill="#f9dd9d"/><path d="m31.254 16.904c0 .938-.762 1.697-1.699 1.697s-1.697-.76-1.697-1.697c0-.938.76-1.699 1.697-1.699s1.699.762 1.699 1.699z" fill="#f9dd9d"/><path d="m39.66 16.904c0 .938-.76 1.697-1.697 1.697s-1.697-.76-1.697-1.697c0-.938.76-1.699 1.697-1.699s1.697.762 1.697 1.699z" fill="#f9dd9d"/><path d="m18.609 22.281c0 .938-.76 1.699-1.697 1.699s-1.697-.762-1.697-1.699.76-1.697 1.697-1.697c.938 0 1.697.76 1.697 1.697z" fill="#f9dd9d"/><path d="m27.018 22.281c0 .938-.76 1.699-1.697 1.699s-1.697-.762-1.697-1.699.76-1.697 1.697-1.697 1.697.76 1.697 1.697z" fill="#f9dd9d"/><path d="m35.426 22.281c0 .938-.76 1.699-1.697 1.699s-1.699-.762-1.699-1.699.762-1.697 1.699-1.697 1.697.76 1.697 1.697z" fill="#f9dd9d"/><path d="m43.865 22.281c0 .938-.762 1.699-1.699 1.699-.938 0-1.697-.762-1.697-1.699s.76-1.697 1.697-1.697 1.699.76 1.699 1.697z" fill="#f9dd9d"/><g fill="#63312d"><path d="m21.148 19.102c-1.212 0-2.197-.985-2.197-2.197 0-1.213.985-2.199 2.197-2.199s2.197.986 2.197 2.199c.001 1.211-.985 2.197-2.197 2.197zm0-3.397c-.66 0-1.197.538-1.197 1.199 0 .66.537 1.197 1.197 1.197s1.197-.537 1.197-1.197c.001-.661-.536-1.199-1.197-1.199z"/><path d="m29.555 19.102c-1.212 0-2.197-.985-2.197-2.197 0-1.213.985-2.199 2.197-2.199 1.213 0 2.199.986 2.199 2.199 0 1.211-.986 2.197-2.199 2.197zm0-3.397c-.66 0-1.197.538-1.197 1.199 0 .66.537 1.197 1.197 1.197.661 0 1.199-.537 1.199-1.197 0-.661-.538-1.199-1.199-1.199z"/><path d="m37.963 19.102c-1.212 0-2.197-.985-2.197-2.197 0-1.213.985-2.199 2.197-2.199s2.197.986 2.197 2.199c0 1.211-.985 2.197-2.197 2.197zm0-3.397c-.66 0-1.197.538-1.197 1.199 0 .66.537 1.197 1.197 1.197s1.197-.537 1.197-1.197c0-.661-.537-1.199-1.197-1.199z"/><path d="m16.912 24.48c-1.212 0-2.197-.986-2.197-2.199 0-1.212.985-2.197 2.197-2.197s2.197.985 2.197 2.197c0 1.213-.985 2.199-2.197 2.199zm0-3.396c-.66 0-1.197.537-1.197 1.197 0 .661.537 1.199 1.197 1.199s1.197-.538 1.197-1.199c0-.66-.537-1.197-1.197-1.197z"/><path d="m25.32 24.48c-1.212 0-2.197-.986-2.197-2.199 0-1.212.985-2.197 2.197-2.197s2.197.985 2.197 2.197c.001 1.213-.985 2.199-2.197 2.199zm0-3.396c-.66 0-1.197.537-1.197 1.197 0 .661.537 1.199 1.197 1.199s1.197-.538 1.197-1.199c.001-.66-.537-1.197-1.197-1.197z"/><path d="m33.729 24.48c-1.213 0-2.199-.986-2.199-2.199 0-1.212.986-2.197 2.199-2.197 1.212 0 2.197.985 2.197 2.197 0 1.213-.986 2.199-2.197 2.199zm0-3.396c-.661 0-1.199.537-1.199 1.197 0 .661.538 1.199 1.199 1.199.66 0 1.197-.538 1.197-1.199 0-.66-.537-1.197-1.197-1.197z"/><path d="m42.166 24.48c-1.212 0-2.197-.986-2.197-2.199 0-1.212.985-2.197 2.197-2.197 1.213 0 2.199.985 2.199 2.197 0 1.213-.986 2.199-2.199 2.199zm0-3.396c-.66 0-1.197.537-1.197 1.197 0 .661.537 1.199 1.197 1.199.661 0 1.199-.538 1.199-1.199 0-.66-.538-1.197-1.199-1.197z"/></g></svg>