<svg id="Layer_2" enable-background="new 0 0 64 64" height="512" viewBox="0 0 64 64" width="512" xmlns="http://www.w3.org/2000/svg"><path d="m18.819 15.773h32.363v45.031h-32.363z" fill="#db785a"/><path d="m51.182 61.305h-32.363c-.276 0-.5-.224-.5-.5v-45.032c0-.276.224-.5.5-.5h32.363c.276 0 .5.224.5.5v45.031c0 .277-.224.501-.5.501zm-31.863-1h31.363v-44.032h-31.363z" fill="#63312d"/><path d="m12.197 44.071h45.607v16.733h-45.607z" fill="#efc36a"/><path d="m57.804 61.305h-45.607c-.276 0-.5-.224-.5-.5v-16.734c0-.276.224-.5.5-.5h45.607c.276 0 .5.224.5.5v16.733c0 .277-.223.501-.5.501zm-45.107-1h44.607v-15.734h-44.607z" fill="#63312d"/><path d="m6.197 44.071h45.607v16.733h-45.607z" fill="#f9dd9d"/><path d="m6.197 44.071h2v16.733h-2z" fill="#ffeecf"/><path d="m51.804 61.305h-45.607c-.276 0-.5-.224-.5-.5v-16.734c0-.276.224-.5.5-.5h45.607c.276 0 .5.224.5.5v16.733c0 .277-.223.501-.5.501zm-45.107-1h44.607v-15.734h-44.607z" fill="#63312d"/><path d="m9.188 40.607h51.625v3.464h-51.625z" fill="#d1d1d1"/><path d="m60.813 44.571h-51.625c-.276 0-.5-.224-.5-.5v-3.464c0-.276.224-.5.5-.5h51.625c.276 0 .5.224.5.5v3.464c0 .277-.224.5-.5.5zm-51.125-1h50.625v-2.464h-50.625z" fill="#63312d"/><path d="m3.188 40.607h51.625v3.464h-51.625z" fill="#f8f3f3"/><path d="m54.813 44.571h-51.625c-.276 0-.5-.224-.5-.5v-3.464c0-.276.224-.5.5-.5h51.625c.276 0 .5.224.5.5v3.464c0 .277-.224.5-.5.5zm-51.125-1h50.625v-2.464h-50.625z" fill="#63312d"/><path d="m12.819 15.773h32.363v45.031h-32.363z" fill="#f9a287"/><path d="m14.819 17.773h30.363v-2h-32.363v45.032h2z" fill="#ffc8bb"/><path d="m22.21 48.711h13.58v12.094h-13.58z" fill="#84dbff"/><path d="m22.21 48.711h2v12.094h-2z" fill="#caf4ff"/><path d="m35.791 61.305h-13.581c-.276 0-.5-.224-.5-.5v-12.094c0-.276.224-.5.5-.5h13.58c.276 0 .5.224.5.5v12.094c.001.276-.223.5-.499.5zm-13.081-1h12.58v-11.094h-12.58z" fill="#63312d"/><path d="m45.182 61.305h-32.363c-.276 0-.5-.224-.5-.5v-45.032c0-.276.224-.5.5-.5h32.363c.276 0 .5.224.5.5v45.031c0 .277-.224.501-.5.501zm-31.863-1h31.363v-44.032h-31.363z" fill="#63312d"/><path d="m16.629 19.408h5.535v5.003h-5.535z" fill="#f8f3f3"/><path d="m22.165 24.911h-5.535c-.276 0-.5-.224-.5-.5v-5.003c0-.276.224-.5.5-.5h5.535c.276 0 .5.224.5.5v5.003c0 .276-.224.5-.5.5zm-5.036-1h4.535v-4.003h-4.535z" fill="#63312d"/><path d="m26.233 19.408h5.535v5.003h-5.535z" fill="#f8f3f3"/><path d="m31.768 24.911h-5.535c-.276 0-.5-.224-.5-.5v-5.003c0-.276.224-.5.5-.5h5.535c.276 0 .5.224.5.5v5.003c0 .276-.224.5-.5.5zm-5.035-1h4.535v-4.003h-4.535z" fill="#63312d"/><path d="m35.836 19.408h5.535v5.003h-5.535z" fill="#f8f3f3"/><path d="m41.372 24.911h-5.535c-.276 0-.5-.224-.5-.5v-5.003c0-.276.224-.5.5-.5h5.535c.276 0 .5.224.5.5v5.003c0 .276-.224.5-.5.5zm-5.036-1h4.535v-4.003h-4.535z" fill="#63312d"/><path d="m16.629 27.908h5.535v5.003h-5.535z" fill="#f8f3f3"/><path d="m22.165 33.411h-5.535c-.276 0-.5-.224-.5-.5v-5.003c0-.276.224-.5.5-.5h5.535c.276 0 .5.224.5.5v5.003c0 .276-.224.5-.5.5zm-5.036-1h4.535v-4.003h-4.535z" fill="#63312d"/><path d="m26.233 27.908h5.535v5.003h-5.535z" fill="#f8f3f3"/><path d="m31.768 33.411h-5.535c-.276 0-.5-.224-.5-.5v-5.003c0-.276.224-.5.5-.5h5.535c.276 0 .5.224.5.5v5.003c0 .276-.224.5-.5.5zm-5.035-1h4.535v-4.003h-4.535z" fill="#63312d"/><path d="m35.836 27.908h5.535v5.003h-5.535z" fill="#f8f3f3"/><path d="m41.372 33.411h-5.535c-.276 0-.5-.224-.5-.5v-5.003c0-.276.224-.5.5-.5h5.535c.276 0 .5.224.5.5v5.003c0 .276-.224.5-.5.5zm-5.036-1h4.535v-4.003h-4.535z" fill="#63312d"/><path d="m16.629 36.408h5.535v5.003h-5.535z" fill="#f8f3f3"/><path d="m22.165 41.911h-5.535c-.276 0-.5-.224-.5-.5v-5.003c0-.276.224-.5.5-.5h5.535c.276 0 .5.224.5.5v5.003c0 .276-.224.5-.5.5zm-5.036-1h4.535v-4.003h-4.535z" fill="#63312d"/><path d="m26.233 36.408h5.535v5.003h-5.535z" fill="#f8f3f3"/><path d="m31.768 41.911h-5.535c-.276 0-.5-.224-.5-.5v-5.003c0-.276.224-.5.5-.5h5.535c.276 0 .5.224.5.5v5.003c0 .276-.224.5-.5.5zm-5.035-1h4.535v-4.003h-4.535z" fill="#63312d"/><path d="m35.836 36.408h5.535v5.003h-5.535z" fill="#f8f3f3"/><path d="m41.372 41.911h-5.535c-.276 0-.5-.224-.5-.5v-5.003c0-.276.224-.5.5-.5h5.535c.276 0 .5.224.5.5v5.003c0 .276-.224.5-.5.5zm-5.036-1h4.535v-4.003h-4.535z" fill="#63312d"/><path d="m15.014 12.011h39.973v3.763h-39.973z" fill="#d1d1d1"/><path d="m54.987 16.273h-39.973c-.276 0-.5-.224-.5-.5v-3.763c0-.276.224-.5.5-.5h39.973c.276 0 .5.224.5.5v3.763c0 .277-.224.5-.5.5zm-39.473-1h38.973v-2.763h-38.973z" fill="#63312d"/><path d="m9.014 12.011h39.973v3.763h-39.973z" fill="#f8f3f3"/><path d="m48.987 16.273h-39.973c-.276 0-.5-.224-.5-.5v-3.763c0-.276.224-.5.5-.5h39.973c.276 0 .5.224.5.5v3.763c0 .277-.224.5-.5.5zm-39.473-1h38.973v-2.763h-38.973z" fill="#63312d"/><path d="m23.598 3.195h22.806v8.815h-22.806z" fill="#efc36a"/><path d="m46.403 12.511h-22.805c-.276 0-.5-.224-.5-.5v-8.816c0-.276.224-.5.5-.5h22.806c.276 0 .5.224.5.5v8.815c-.001.277-.224.501-.501.501zm-22.305-1h21.806v-7.816h-21.806z" fill="#63312d"/><path d="m17.598 3.195h22.806v8.815h-22.806z" fill="#f9dd9d"/><path d="m19.598 5.195h20.805v-2h-22.805v8.816h2z" fill="#ffeecf"/><path d="m40.403 12.511h-22.805c-.276 0-.5-.224-.5-.5v-8.816c0-.276.224-.5.5-.5h22.806c.276 0 .5.224.5.5v8.815c-.001.277-.224.501-.501.501zm-22.305-1h21.806v-7.816h-21.806z" fill="#63312d"/><path d="m35.79 48.711c-1.063-2.714-3.699-4.64-6.79-4.64s-5.727 1.925-6.79 4.64z" fill="#f9dd9d"/><path d="m30 44.149c-.328-.045-.66-.078-1-.078-3.091 0-5.727 1.925-6.79 4.64h2c.947-2.416 3.141-4.197 5.79-4.562z" fill="#ffeecf"/><g fill="#63312d"><path d="m35.791 49.211h-13.581c-.165 0-.32-.082-.413-.218s-.113-.31-.052-.464c1.18-3.011 4.028-4.957 7.255-4.957s6.076 1.946 7.255 4.957c.061.154.041.328-.052.464s-.247.218-.412.218zm-12.805-1h12.028c-1.166-2.233-3.453-3.64-6.014-3.64s-4.848 1.407-6.014 3.64z"/><text font-family="'Poppins-Medium'" font-size="6.007" transform="translate(19.926 9.803)">HOTEL</text><path d="m28.5 48.711h1v11.813h-1z"/><path d="m26.02 53.693h1v2.146h-1z"/><path d="m30.979 53.693h1v2.146h-1z"/></g></svg>