<svg id="Layer_2" enable-background="new 0 0 64 64" height="512" viewBox="0 0 64 64" width="512" xmlns="http://www.w3.org/2000/svg"><path d="m15.396 19.235c2.852 1.651 6.494 4.304 9.445 7.813.746.866 1.428 1.795 2.072 2.734.313.478.613.96.908 1.44.27.493.553.975.801 1.465.236.497.486.98.697 1.469.203.492.41.973.594 1.45.164.483.328.955.484 1.409.131.465.256.914.377 1.344.232.867.385 1.679.518 2.399.1.724.213 1.36.256 1.882.084 1.053.131 1.655.131 1.655.135 1.676-1.115 3.142-2.791 3.276s-3.143-1.119-3.275-2.792c-.014-.176-.012-.347.002-.517l.014-.15s.047-.482.129-1.33c.041-.423.035-.937.063-1.534-.006-.592-.012-1.267-.072-1.999-.037-.367-.074-.75-.113-1.146-.063-.394-.127-.801-.191-1.221-.092-.417-.184-.845-.277-1.284-.104-.438-.244-.876-.365-1.331-.139-.45-.307-.899-.461-1.363-.185-.453-.373-.912-.56-1.375-.418-.911-.871-1.835-1.4-2.724-2.072-3.594-5.059-6.731-7.527-8.798z" fill="#f9a287"/><path d="m27.613 44.78c-.014-.176-.012-.347.002-.517l.014-.15s.047-.482.129-1.33c.041-.423.035-.937.063-1.534-.006-.592-.012-1.267-.072-1.999-.037-.367-.074-.75-.113-1.146-.063-.394-.127-.801-.191-1.221-.092-.417-.184-.845-.277-1.284-.104-.438-.244-.876-.365-1.331-.139-.45-.307-.899-.461-1.363-.185-.453-.373-.912-.56-1.375-.418-.911-.871-1.835-1.4-2.724-1.92-3.328-4.617-6.252-6.967-8.31-.699-.467-1.379-.893-2.016-1.262l-.545.773c2.469 2.067 5.455 5.204 7.527 8.798.529.889.982 1.813 1.4 2.724.188.463.375.922.56 1.375.154.464.322.913.461 1.363.121.455.262.893.365 1.331.094.439.186.867.277 1.284.064.419.129.827.191 1.221.039.396.076.779.113 1.146.061.731.066 1.406.072 1.999-.027.597-.022 1.111-.063 1.534-.082.847-.129 1.33-.129 1.33l-.014.15c-.014.17-.016.341-.002.517.133 1.673 1.6 2.926 3.275 2.792.263-.021.51-.085.748-.168-1.097-.387-1.924-1.389-2.022-2.623z" fill="#ffc8bb"/><path d="m28.642 48.082c-.842 0-1.646-.296-2.294-.848-.72-.615-1.158-1.472-1.232-2.415-.017-.204-.014-.4.002-.596l.143-1.488c.024-.249.031-.531.039-.843.006-.209.012-.431.022-.666-.007-.577-.014-1.232-.071-1.935l-.113-1.138-.188-1.194-.272-1.256c-.058-.245-.132-.501-.206-.761-.052-.18-.104-.361-.153-.546-.077-.25-.171-.519-.266-.791l-.187-.542-.55-1.345c-.497-1.083-.921-1.908-1.366-2.656-2.474-4.291-6.012-7.493-7.419-8.671-.199-.167-.237-.458-.088-.671l.545-.773c.15-.212.436-.274.66-.145 2.12 1.228 6.184 3.889 9.577 7.924.667.774 1.336 1.657 2.102 2.773.321.49.625.977.922 1.46l.28.504c.187.333.372.663.541.997l.239.494c.164.336.326.668.471 1.003l.175.42c.147.354.293.702.427 1.048l.876 2.798c.247.923.409 1.802.528 2.443l.104.715c.067.452.128.86.157 1.216l.131 1.657c.076.942-.22 1.858-.834 2.579-.613.72-1.472 1.158-2.415 1.234-.096.011-.193.015-.287.015zm-13.119-28.158c1.622 1.401 4.925 4.533 7.289 8.634.46.773.899 1.628 1.421 2.765l.763 1.955c.099.284.196.564.282.844.053.197.104.372.153.545.079.275.157.546.221.817l.279 1.292.313 2.424c.063.748.069 1.422.075 2.018-.011.282-.017.497-.021.7-.009.339-.018.644-.043.914l-.143 1.477c-.012.139-.013.284-.002.433.054.675.368 1.291.886 1.731s1.176.655 1.852.601c.678-.054 1.293-.369 1.734-.886.44-.517.652-1.174.599-1.852l-.131-1.655c-.028-.335-.086-.721-.15-1.148l-.103-.705c-.112-.603-.27-1.459-.506-2.338l-.523-1.767-.328-.956c-.123-.319-.265-.659-.409-1.003l-.173-.417c-.136-.313-.291-.631-.448-.953l-.238-.492c-.158-.311-.336-.629-.516-.949l-.272-.491c-.28-.453-.578-.932-.888-1.405-.739-1.077-1.387-1.932-2.033-2.682-3.1-3.686-6.778-6.194-8.923-7.475z" fill="#63312d"/><path d="m46.902 12.765c-3.504 2.028-7.979 5.287-11.602 9.597-.916 1.063-1.754 2.204-2.547 3.358-.383.586-.752 1.179-1.113 1.768-.332.605-.68 1.198-.984 1.8-.289.61-.596 1.203-.855 1.804-.248.604-.506 1.195-.729 1.781-.203.593-.404 1.172-.596 1.731-.16.57-.316 1.122-.465 1.651-.283 1.064-.473 2.061-.635 2.947-.123.89-.262 1.67-.315 2.311-.102 1.293-.16 2.032-.16 2.032-.166 2.06 1.371 3.86 3.428 4.025 2.057.163 3.859-1.374 4.023-3.43.018-.216.016-.427-.002-.635l-.018-.184s-.057-.592-.158-1.633c-.049-.52-.043-1.151-.078-1.884.01-.728.014-1.557.09-2.456.045-.45.092-.921.139-1.407.076-.484.156-.984.236-1.5.111-.512.225-1.038.34-1.577.127-.538.301-1.075.449-1.634.17-.553.377-1.104.566-1.674.228-.556.457-1.12.687-1.688.514-1.119 1.07-2.254 1.721-3.346 2.547-4.415 6.215-8.268 9.246-10.807z" fill="#f9a287"/><path d="m28.902 43.544s.059-.738.16-2.032c.053-.641.191-1.421.315-2.311.162-.885.351-1.882.635-2.947.149-.529.305-1.081.465-1.651.191-.559.392-1.138.596-1.731.223-.586.48-1.177.729-1.781.26-.601.566-1.194.856-1.804.305-.602.652-1.195.984-1.8.361-.589.73-1.182 1.113-1.768.793-1.154 1.631-2.295 2.547-3.358 3.156-3.754 6.956-6.708 10.199-8.749l-.598-.848c-3.504 2.028-7.979 5.287-11.602 9.597-.916 1.063-1.754 2.204-2.547 3.358-.383.586-.752 1.179-1.113 1.768-.332.605-.68 1.198-.984 1.8-.289.61-.596 1.203-.855 1.804-.248.604-.506 1.195-.729 1.781-.203.593-.404 1.172-.596 1.731-.16.57-.316 1.122-.465 1.651-.283 1.064-.473 2.061-.635 2.947-.123.89-.262 1.67-.315 2.311-.102 1.293-.16 2.032-.16 2.032-.166 2.06 1.371 3.86 3.428 4.025.443.035.868-.022 1.273-.133-1.679-.477-2.846-2.083-2.701-3.892z" fill="#ffc8bb"/><path d="m30.629 48.082c-.112 0-.225-.004-.338-.013-1.129-.091-2.154-.615-2.889-1.477s-1.09-1.958-.998-3.087l.16-2.031c.036-.441.111-.944.194-1.502l.123-.838c.172-.942.36-1.931.646-3.007l.756-2.501.315-.915c.159-.42.329-.826.501-1.238l.237-.571c.179-.414.375-.815.573-1.221l.293-.607c.217-.428.448-.841.681-1.256l.317-.57c.376-.614.748-1.21 1.133-1.801.948-1.38 1.769-2.461 2.587-3.411 4.15-4.938 9.131-8.2 11.73-9.704.22-.128.509-.068.658.145l.67.95c.15.212.112.504-.087.671-1.732 1.451-6.089 5.395-9.135 10.674-.551.925-1.073 1.942-1.699 3.305l-.679 1.67c-.063.193-.141.416-.218.637-.117.334-.232.664-.334.994-.055.21-.12.435-.184.658-.092.318-.183.631-.257.944l-.338 1.568-.23 1.471-.136 1.379c-.066.792-.076 1.546-.084 2.211l-.003.201c.014.265.021.544.028.807.011.379.02.721.048 1.023l.176 1.816c.021.241.022.479.002.723-.173 2.217-2.034 3.903-4.219 3.903zm16.13-34.654c-2.628 1.56-7.22 4.668-11.075 9.255-.799.926-1.597 1.98-2.518 3.32-.374.573-.74 1.162-1.1 1.747l-.31.557c-.226.402-.45.802-.654 1.207l-.292.606c-.191.391-.381.779-.55 1.17l-.236.569c-.168.401-.334.797-.483 1.191l-1.047 3.34c-.275 1.034-.459 2.001-.624 2.901-.038.274-.08.558-.121.829-.08.533-.152 1.014-.188 1.434l-.16 2.03c-.069.863.201 1.701.763 2.359s1.345 1.059 2.207 1.128c1.803.143 3.343-1.192 3.485-2.971.015-.189.013-.372-.002-.554l-.176-1.811c-.03-.324-.04-.688-.052-1.091-.007-.256-.014-.528-.027-.817l.002-.231c.008-.683.018-1.456.089-2.291l.229-1.989.149-.952.345-1.605c.08-.339.175-.668.271-1.002.062-.216.125-.435.184-.656.11-.361.229-.702.351-1.048.075-.217.151-.435.225-.656l.663-1.631c.003-.007.041-.101.045-.108.641-1.396 1.179-2.443 1.745-3.394 2.933-5.083 7.046-8.955 9.004-10.637z" fill="#63312d"/><path d="m19.967 17.108 5.352-5.546c-2.547-.481-5.277.287-7.211 2.29-.584.606-1.039 1.285-1.395 2.001l.525-4.339c-1.691.84-2.941 2.485-3.186 4.5-.141 1.156.08 2.267.559 3.239-1.068-.181-2.197-.076-3.266.387-1.861.807-3.08 2.474-3.404 4.335l4.008-1.739c-.584.545-1.107 1.174-1.519 1.906-1.371 2.425-1.328 5.261-.143 7.565l3.795-6.71c-.207 1.022-.25 2.094-.076 3.185.496 3.104 2.529 5.581 5.199 6.783l-2.223-13.943 14-1.841c-1.914-2.216-4.865-3.46-7.982-3.051-1.096.145-2.113.491-3.033.978z" fill="#f9dd9d"/><path d="m19.205 35.466c-.069 0-.14-.015-.205-.044-2.931-1.32-4.982-3.997-5.488-7.16-.055-.349-.091-.701-.105-1.054l-2.684 4.746c-.09.16-.267.246-.445.254-.184-.004-.351-.108-.435-.271-1.312-2.548-1.255-5.553.151-8.04.068-.122.141-.242.217-.36l-2.07.898c-.17.073-.364.048-.509-.065s-.215-.298-.183-.479c.366-2.103 1.748-3.862 3.697-4.708.848-.367 1.754-.535 2.688-.508-.293-.877-.389-1.803-.277-2.72.256-2.111 1.549-3.938 3.459-4.887.163-.082.36-.068.511.04.15.106.23.286.208.468l-.271 2.242c.093-.106.188-.21.284-.311 1.985-2.055 4.851-2.966 7.664-2.434.181.034.328.165.384.339.056.175.011.367-.117.499l-3.787 3.925c.345-.086.692-.153 1.044-.199 3.173-.418 6.325.786 8.426 3.22.121.139.154.333.089.504-.064.172-.22.294-.401.318l-13.491 1.774 2.143 13.436c.028.181-.044.364-.19.476-.092.066-.199.101-.307.101zm-5.123-10.968c.059 0 .117.01.175.032.23.086.364.327.315.567-.205 1.011-.229 2.023-.072 3.008.401 2.512 1.892 4.68 4.056 5.962l-2.067-12.965c-.021-.133.013-.27.094-.377.08-.108.201-.179.335-.197l13.018-1.712c-1.847-1.708-4.355-2.517-6.869-2.188-.991.13-1.955.441-2.864.923-.216.113-.485.056-.634-.141-.147-.196-.131-.471.04-.648l4.656-4.826c-2.162-.131-4.273.687-5.797 2.264-.513.533-.953 1.165-1.306 1.876-.109.219-.359.325-.592.257-.233-.07-.382-.297-.353-.539l.4-3.31c-1.141.859-1.893 2.146-2.068 3.591-.122 1.007.055 2.03.511 2.958.083.168.064.369-.048.52-.111.15-.296.222-.484.194-1.018-.173-2.052-.052-2.982.353-1.334.578-2.353 1.666-2.852 3.005l3.057-1.326c.221-.097.483-.021.617.185.134.204.101.474-.077.64-.586.546-1.065 1.147-1.425 1.785-1.08 1.911-1.257 4.168-.521 6.204l3.302-5.839c.09-.163.259-.256.435-.256z" fill="#63312d"/><path d="m41.289 10.152-6.574-6.812c3.129-.59 6.484.353 8.857 2.812.719.745 1.277 1.578 1.713 2.459l-.645-5.33c2.078 1.032 3.613 3.052 3.91 5.527.174 1.42-.096 2.785-.684 3.979 1.313-.223 2.697-.093 4.01.475 2.287.992 3.785 3.039 4.183 5.324l-4.924-2.136c.717.669 1.359 1.442 1.867 2.341 1.682 2.979 1.631 6.462.174 9.292l-4.66-8.242c.254 1.256.307 2.573.092 3.913-.609 3.813-3.107 6.855-6.385 8.332l2.729-17.126-17.192-2.261c2.35-2.721 5.975-4.25 9.805-3.747 1.345.176 2.593.601 3.724 1.2z" fill="#f9dd9d"/><path d="m42.225 32.587c-.107 0-.215-.035-.304-.103-.146-.112-.219-.294-.19-.476l2.648-16.619-16.685-2.194c-.182-.024-.336-.146-.401-.318-.065-.171-.032-.365.088-.504 2.556-2.959 6.389-4.425 10.249-3.917.562.074 1.117.19 1.664.349l-4.938-5.118c-.128-.132-.173-.324-.117-.499s.203-.305.384-.339c3.42-.648 6.9.459 9.31 2.956.207.214.404.438.592.673l-.379-3.137c-.022-.183.058-.362.208-.468s.348-.121.511-.04c2.313 1.148 3.878 3.36 4.184 5.916.143 1.164.009 2.34-.387 3.447 1.168-.069 2.339.141 3.415.607 2.36 1.023 4.034 3.153 4.478 5.697.032.181-.038.365-.183.479-.145.115-.339.14-.509.066l-2.899-1.258c.172.248.332.501.478.759 1.707 3.023 1.775 6.675.183 9.768-.084.163-.251.267-.435.271-.188-.013-.355-.094-.445-.254l-3.499-6.189c-.004.569-.051 1.134-.14 1.693-.615 3.847-3.109 7.103-6.674 8.709-.068.028-.138.043-.207.043zm-13.43-20.256 16.224 2.134c.134.018.255.088.335.197.081.108.114.244.094.377l-2.576 16.161c2.799-1.575 4.732-4.326 5.243-7.524.196-1.221.166-2.478-.088-3.735-.049-.241.085-.481.315-.567.231-.086.489.008.61.222l4.175 7.385c1.015-2.589.823-5.495-.56-7.944-.449-.794-1.045-1.542-1.772-2.222-.179-.166-.211-.436-.077-.639.133-.205.395-.282.617-.185l3.995 1.733c-.588-1.786-1.903-3.246-3.653-4.004-1.163-.504-2.453-.658-3.727-.44-.191.027-.373-.044-.484-.194-.112-.15-.131-.351-.048-.52.57-1.158.79-2.437.636-3.697-.228-1.896-1.251-3.573-2.796-4.644l.522 4.326c.029.242-.12.47-.354.539-.229.068-.483-.039-.591-.257-.438-.885-.984-1.67-1.624-2.333-1.951-2.022-4.687-3.029-7.454-2.798l5.89 6.104c.171.177.188.452.04.648-.15.196-.418.253-.634.141-1.132-.6-2.328-.986-3.556-1.147-3.203-.422-6.395.649-8.702 2.883z" fill="#63312d"/><path d="m55.101 53.075c-.273-7.409-9.167-13.358-20.101-13.358h-6v.625c-8.017 1.707-13.879 6.741-14.1 12.733z" fill="#efc36a"/><path d="m55.101 53.575h-40.201c-.136 0-.266-.055-.36-.153s-.145-.23-.14-.366c.222-6.003 5.868-11.238 14.1-13.116v-.223c0-.276.224-.5.5-.5h6c11.267 0 20.314 6.079 20.601 13.839.005.136-.046.268-.14.366-.095.098-.225.153-.36.153zm-39.666-1h39.132c-.659-6.861-9.278-12.358-19.567-12.358h-5.5v.125c0 .236-.165.44-.396.489-7.743 1.648-13.155 6.329-13.669 11.744z" fill="#63312d"/><path d="m49.101 53.075c-.273-7.409-9.167-13.358-20.101-13.358-10.932 0-19.826 5.948-20.1 13.357h40.201z" fill="#f9dd9d"/><path d="m30 39.751c-.333-.011-.662-.034-1-.034-10.932 0-19.826 5.948-20.1 13.357h2c.265-7.18 8.633-12.971 19.1-13.323z" fill="#ffeecf"/><path d="m49.101 53.575h-40.201c-.136 0-.266-.055-.36-.153s-.145-.23-.14-.366c.287-7.76 9.335-13.839 20.6-13.839 11.267 0 20.314 6.079 20.601 13.839.005.136-.046.268-.14.366-.095.098-.225.153-.36.153zm-39.666-1h39.132c-.659-6.861-9.278-12.358-19.567-12.358-10.287 0-18.906 5.497-19.565 12.358z" fill="#63312d"/><path d="m60.83 59.141-2.361 1.471c-.467.291-1.23.291-1.697 0l-1.514-.941c-.467-.291-1.23-.291-1.697 0l-1.51.941c-.467.291-1.23.291-1.697 0l-1.508-.941c-.467-.291-1.231-.291-1.697 0l-1.508.941c-.467.291-1.23.291-1.697 0l-1.504-.941c-.467-.291-1.23-.291-1.697 0l-1.508.941c-.467.291-1.23.291-1.697 0l-1.508-.941c-.467-.291-1.23-.291-1.697 0l-1.508.941c-.465.291-1.229.291-1.695 0l-1.506-.941c-.467-.291-1.23-.291-1.697 0l-1.506.941c-.467.291-1.23.291-1.697 0l-1.504-.941c-.467-.291-1.23-.291-1.697 0l-1.506.941c-.467.291-1.23.291-1.697 0l-1.502-.939c-.467-.293-1.231-.293-1.697-.002l-1.506.941c-.467.291-1.228.291-1.695 0l-1.504-.939c-.467-.293-1.229-.293-1.695 0l-1.502.939c-.465.291-1.228.291-1.695 0l-2.354-1.471v-9.623l2.352 1.471c.467.291 1.231.291 1.695 0l1.502-.939c.467-.291 1.229-.291 1.695 0l1.504.939c.467.291 1.228.291 1.695 0l1.506-.939c.467-.293 1.23-.293 1.697 0l1.502.939c.467.291 1.23.291 1.697 0l1.506-.939c.467-.293 1.231-.293 1.697 0l1.504.939c.467.291 1.23.291 1.697 0l1.506-.939c.467-.293 1.23-.293 1.697 0l1.506.939c.467.291 1.23.291 1.695 0l1.508-.939c.467-.293 1.23-.293 1.697-.002l1.508.941c.467.291 1.23.291 1.697 0l1.508-.941c.467-.291 1.23-.291 1.697.002l1.504.939c.467.291 1.23.291 1.697 0l1.508-.941c.467-.291 1.23-.291 1.697 0l1.508.941c.467.291 1.231.291 1.697 0l1.51-.941c.467-.291 1.231-.291 1.697 0l1.514.943c.467.291 1.231.291 1.697 0l2.361-1.473v9.623z" fill="#52b8d9"/><path d="m31.978 61.328c-.4 0-.801-.097-1.113-.292l-1.506-.942c-.307-.189-.863-.19-1.168 0l-1.506.941c-.623.39-1.602.389-2.227 0l-1.505-.942c-.305-.19-.86-.19-1.167 0l-1.506.941c-.623.39-1.602.389-2.227 0l-1.503-.94c-.304-.192-.861-.192-1.167-.001l-1.506.941c-.623.39-1.602.389-2.225 0l-1.504-.94c-.307-.191-.86-.191-1.165 0l-1.502.94c-.623.39-1.601.39-2.226 0l-2.352-1.471c-.146-.091-.235-.251-.235-.424v-9.623c0-.182.099-.349.258-.438.159-.086.354-.083.507.014l2.352 1.471c.306.19.861.191 1.165 0l1.502-.939c.625-.39 1.603-.389 2.226 0l1.504.94c.305.189.861.19 1.166 0l1.506-.939c.622-.39 1.602-.392 2.228.001l1.502.939c.305.189.862.19 1.167 0l1.506-.939c.622-.39 1.602-.392 2.228.001l1.503.939c.307.189.863.19 1.168 0l1.506-.939c.622-.39 1.602-.392 2.228.001l1.505.938c.306.191.861.191 1.165 0l1.509-.94c.622-.391 1.601-.391 2.227-.002l1.508.941c.305.19.863.19 1.168 0l1.508-.941c.625-.39 1.604-.388 2.228.003l1.503.939c.307.189.863.19 1.168 0l1.508-.941c.625-.389 1.602-.389 2.227 0l1.508.941c.305.19.863.19 1.168 0l1.51-.941c.625-.389 1.602-.389 2.227 0l1.514.943c.305.19.863.19 1.168 0l2.361-1.473c.154-.096.348-.102.507-.013.159.088.258.255.258.437v9.623c0 .173-.089.333-.235.424l-2.361 1.471c-.625.39-1.602.39-2.227 0l-1.513-.941c-.307-.191-.864-.191-1.169 0l-1.51.941c-.625.389-1.602.389-2.227 0l-1.508-.941c-.305-.19-.863-.19-1.168 0l-1.508.941c-.625.389-1.602.389-2.227 0l-1.505-.942c-.305-.19-.86-.19-1.167 0l-1.508.941c-.625.389-1.602.389-2.227 0l-1.508-.941c-.305-.19-.863-.19-1.168 0l-1.508.941c-.314.195-.713.292-1.113.292zm-28.308-2.464 2.116 1.324c.306.19.861.191 1.165 0l1.502-.939c.625-.392 1.602-.392 2.227 0l1.503.939c.305.189.861.19 1.166 0l1.506-.941c.625-.391 1.604-.389 2.228.002l1.502.939c.305.189.862.19 1.167 0l1.506-.941c.623-.39 1.602-.389 2.227 0l1.505.942c.305.19.86.19 1.167 0l1.506-.941c.623-.39 1.602-.389 2.227 0l1.506.942c.306.19.861.191 1.165 0l1.509-.942c.625-.389 1.602-.389 2.227 0l1.508.941c.305.19.863.19 1.168 0l1.508-.941c.625-.389 1.602-.389 2.227 0l1.505.942c.305.19.86.19 1.167 0l1.508-.941c.625-.389 1.602-.389 2.227 0l1.508.941c.305.19.863.19 1.168 0l1.51-.941c.625-.389 1.602-.389 2.227 0l1.513.941c.307.191.864.191 1.169 0l2.126-1.324v-8.444l-1.597.996c-.625.389-1.602.389-2.227 0l-1.514-.943c-.305-.19-.863-.19-1.168 0l-1.51.941c-.625.389-1.602.389-2.227 0l-1.508-.941c-.305-.19-.863-.19-1.168 0l-1.508.941c-.625.389-1.602.389-2.227 0l-1.504-.94c-.307-.192-.863-.192-1.168-.001l-1.508.941c-.625.389-1.602.389-2.227 0l-1.508-.941c-.306-.191-.861-.19-1.167.001l-1.509.94c-.623.39-1.6.39-2.225 0l-1.506-.939c-.308-.193-.863-.192-1.167-.001l-1.507.94c-.625.389-1.602.389-2.227 0l-1.504-.94c-.308-.192-.863-.191-1.167 0l-1.507.94c-.625.389-1.602.389-2.227 0l-1.503-.94c-.306-.192-.862-.191-1.166 0l-1.507.94c-.623.389-1.602.389-2.225 0l-1.504-.94c-.305-.189-.861-.19-1.166 0l-1.501.939c-.623.39-1.601.39-2.226 0l-1.586-.995z" fill="#63312d"/><path d="m54.367 49.834c-.293.006-.584.074-.807.213l-1.51.941c-.467.291-1.23.291-1.697 0l-1.508-.941c-.467-.291-1.231-.291-1.697 0l-1.508.941c-.467.291-1.23.291-1.697 0l-1.504-.939c-.467-.293-1.23-.293-1.697-.002l-1.508.941c-.467.291-1.23.291-1.697 0l-1.508-.941c-.467-.291-1.23-.291-1.697.002l-1.508.939c-.465.291-1.229.291-1.695 0l-1.506-.939c-.467-.293-1.23-.293-1.697 0l-1.506.939c-.467.291-1.23.291-1.697 0l-1.504-.939c-.467-.293-1.23-.293-1.697 0l-1.506.939c-.467.291-1.23.291-1.697 0l-1.502-.939c-.467-.293-1.231-.293-1.697 0l-1.506.939c-.467.291-1.228.291-1.695 0l-1.504-.939c-.467-.291-1.229-.291-1.695 0l-1.502.939c-.465.291-1.228.291-1.695 0l-2.353-1.47v9.623l2.352 1.471c.467.291 1.231.291 1.695 0l1.502-.939c.467-.293 1.229-.293 1.695 0l1.504.939c.467.291 1.228.291 1.695 0l1.506-.941c.467-.291 1.23-.291 1.697.002l1.502.939c.467.291 1.23.291 1.697 0l1.506-.941c.467-.291 1.231-.291 1.697 0l1.504.941c.467.291 1.23.291 1.697 0l1.506-.941c.467-.291 1.23-.291 1.697 0l1.506.941c.467.291 1.23.291 1.695 0l1.508-.941c.467-.291 1.23-.291 1.697 0l1.508.941c.467.291 1.23.291 1.697 0l1.508-.941c.467-.291 1.23-.291 1.697 0l1.504.941c.467.291 1.23.291 1.697 0l1.508-.941c.467-.291 1.23-.291 1.697 0l1.508.941c.467.291 1.231.291 1.697 0l1.51-.941c.223-.139.514-.207.807-.213v-9.624z" fill="#84dbff"/><path d="m53.56 50.047-1.51.941c-.467.291-1.23.291-1.697 0l-1.508-.941c-.467-.291-1.231-.291-1.697 0l-1.508.941c-.467.291-1.23.291-1.697 0l-1.504-.939c-.467-.293-1.23-.293-1.697-.002l-1.508.941c-.467.291-1.23.291-1.697 0l-1.508-.941c-.467-.291-1.23-.291-1.697.002l-1.508.939c-.465.291-1.229.291-1.695 0l-1.506-.939c-.467-.293-1.23-.293-1.697 0l-1.506.939c-.467.291-1.23.291-1.697 0l-1.504-.939c-.467-.293-1.23-.293-1.697 0l-1.506.939c-.467.291-1.23.291-1.697 0l-1.502-.939c-.467-.293-1.231-.293-1.697 0l-1.506.939c-.467.291-1.228.291-1.695 0l-1.504-.939c-.467-.291-1.229-.291-1.695 0l-1.502.939c-.465.291-1.228.291-1.695 0l-.353-.22-2-1.25v2 7.623l2 1.25v-7.623l.352.221c.467.291 1.231.291 1.695 0l1.502-.939c.467-.291 1.229-.291 1.695 0l1.504.939c.467.291 1.228.291 1.695 0l1.506-.939c.467-.293 1.23-.293 1.697 0l1.502.939c.467.291 1.23.291 1.697 0l1.506-.939c.467-.293 1.231-.293 1.697 0l1.504.939c.467.291 1.23.291 1.697 0l1.506-.939c.467-.293 1.23-.293 1.697 0l1.506.939c.467.291 1.23.291 1.695 0l1.508-.939c.467-.293 1.23-.293 1.697-.002l1.508.941c.467.291 1.23.291 1.697 0l1.508-.941c.467-.291 1.23-.291 1.697.002l1.504.939c.467.291 1.23.291 1.697 0l1.508-.941c.467-.291 1.23-.291 1.697 0l1.508.941c.467.291 1.231.291 1.697 0l1.51-.941c.223-.139.514-.207.807-.213v-2c-.292.005-.583.074-.806.212z" fill="#caf4ff"/><path d="m31.978 61.328c-.4 0-.801-.097-1.113-.292l-1.506-.942c-.307-.189-.863-.19-1.168 0l-1.506.941c-.623.39-1.602.389-2.227 0l-1.505-.942c-.305-.19-.86-.19-1.167 0l-1.506.941c-.623.39-1.602.389-2.227 0l-1.503-.94c-.304-.192-.861-.192-1.167-.001l-1.506.941c-.623.39-1.602.389-2.225 0l-1.504-.94c-.307-.191-.86-.191-1.165 0l-1.502.94c-.623.39-1.601.39-2.226 0l-2.352-1.471c-.146-.091-.235-.251-.235-.424v-9.623c0-.182.099-.349.258-.438.159-.086.354-.083.507.014l2.352 1.471c.306.19.861.191 1.165 0l1.502-.939c.625-.39 1.603-.389 2.226 0l1.504.94c.305.189.861.19 1.166 0l1.506-.939c.622-.39 1.602-.392 2.228.001l1.502.939c.305.189.862.19 1.167 0l1.506-.939c.622-.39 1.602-.392 2.228.001l1.503.939c.307.189.863.19 1.168 0l1.506-.939c.622-.39 1.602-.392 2.228.001l1.505.938c.306.191.861.191 1.165 0l1.509-.94c.622-.391 1.601-.391 2.227-.002l1.508.941c.305.19.863.19 1.168 0l1.508-.941c.625-.39 1.604-.388 2.228.003l1.503.939c.307.189.863.19 1.168 0l1.508-.941c.625-.389 1.602-.389 2.227 0l1.508.941c.305.19.863.19 1.168 0l1.51-.941c.366-.228.779-.283 1.062-.289.126 0 .265.049.359.143.097.094.15.223.15.357v9.623c0 .272-.218.495-.49.5-.218.004-.419.054-.552.137l-1.51.941c-.625.389-1.602.389-2.227 0l-1.508-.941c-.305-.19-.863-.19-1.168 0l-1.508.941c-.625.389-1.602.389-2.227 0l-1.505-.942c-.305-.19-.86-.19-1.167 0l-1.508.941c-.625.389-1.602.389-2.227 0l-1.508-.941c-.305-.19-.863-.19-1.168 0l-1.508.941c-.313.195-.712.292-1.112.292zm-28.308-2.464 2.116 1.324c.306.19.861.191 1.165 0l1.502-.939c.625-.392 1.602-.392 2.227 0l1.503.939c.305.189.861.19 1.166 0l1.506-.941c.625-.391 1.604-.389 2.228.002l1.502.939c.305.189.862.19 1.167 0l1.506-.941c.623-.39 1.602-.389 2.227 0l1.505.942c.305.19.86.19 1.167 0l1.506-.941c.623-.39 1.602-.389 2.227 0l1.506.942c.306.19.861.191 1.165 0l1.509-.942c.625-.389 1.602-.389 2.227 0l1.508.941c.305.19.863.19 1.168 0l1.508-.941c.625-.389 1.602-.389 2.227 0l1.505.942c.305.19.86.19 1.167 0l1.508-.941c.625-.389 1.602-.389 2.227 0l1.508.941c.305.19.863.19 1.168 0l1.51-.941c.187-.116.385-.187.571-.23v-8.568c-.015.008-.029.016-.042.024l-1.51.941c-.625.389-1.602.389-2.227 0l-1.508-.941c-.305-.19-.863-.19-1.168 0l-1.508.941c-.625.389-1.602.389-2.227 0l-1.504-.94c-.307-.192-.863-.192-1.168-.001l-1.508.941c-.625.389-1.602.389-2.227 0l-1.508-.941c-.306-.191-.861-.19-1.167.001l-1.509.94c-.623.39-1.6.39-2.225 0l-1.506-.939c-.308-.193-.863-.192-1.167-.001l-1.507.94c-.625.389-1.602.389-2.227 0l-1.504-.94c-.308-.192-.863-.191-1.167 0l-1.507.94c-.625.389-1.602.389-2.227 0l-1.503-.94c-.306-.192-.862-.191-1.166 0l-1.507.94c-.623.389-1.602.389-2.225 0l-1.504-.94c-.305-.189-.861-.19-1.166 0l-1.501.939c-.623.39-1.601.39-2.226 0l-1.586-.995z" fill="#63312d"/></svg>