<svg id="Layer_2" enable-background="new 0 0 64 64" height="512" viewBox="0 0 64 64" width="512" xmlns="http://www.w3.org/2000/svg"><path d="m49.781 55.113c2.756 0 4.99-2.234 4.99-4.992 0-2.754-2.234-4.988-4.99-4.988h-2.808v9.98z" fill="#52b8d9"/><path d="m49.781 55.613h-2.808c-.276 0-.5-.224-.5-.5v-9.98c0-.276.224-.5.5-.5h2.808c3.027 0 5.49 2.462 5.49 5.488 0 3.028-2.463 5.492-5.49 5.492zm-2.308-1h2.308c2.476 0 4.49-2.016 4.49-4.492 0-2.475-2.014-4.488-4.49-4.488h-2.308z" fill="#63312d"/><path d="m18.433 55.113c2.756 0 4.99-2.234 4.99-4.992 0-2.754-2.234-4.988-4.99-4.988h-2.808v9.98z" fill="#52b8d9"/><path d="m18.433 55.613h-2.808c-.276 0-.5-.224-.5-.5v-9.98c0-.276.224-.5.5-.5h2.808c3.027 0 5.49 2.462 5.49 5.488 0 3.028-2.463 5.492-5.49 5.492zm-2.308-1h2.308c2.476 0 4.49-2.016 4.49-4.492 0-2.475-2.014-4.488-4.49-4.488h-2.308z" fill="#63312d"/><path d="m50.023 36.867-5.375-10.256c-.613-.914-2.015-1.66-3.115-1.66h-16.666c-1.1 0-2.502.746-3.115 1.66l-5.375 10.256z" fill="#db785a"/><path d="m50.023 37.367h-33.645c-.175 0-.337-.092-.428-.241s-.096-.336-.015-.491l5.375-10.256c.735-1.102 2.286-1.928 3.558-1.928h16.667c1.271 0 2.822.826 3.53 1.882l5.402 10.302c.081.155.076.342-.015.491s-.254.241-.429.241zm-32.819-1h31.993l-4.991-9.523c-.496-.733-1.732-1.393-2.672-1.393h-16.667c-.94 0-2.176.659-2.7 1.438z" fill="#63312d"/><path d="m28.221 34.826h20.733l-3.996-7.625h-16.737z" fill="#d1d1d1"/><path d="m48.954 35.326h-20.733c-.276 0-.5-.224-.5-.5v-7.625c0-.276.224-.5.5-.5h16.737c.186 0 .356.104.443.268l3.996 7.625c.081.155.076.342-.015.491-.09.149-.253.241-.428.241zm-20.233-1h19.406l-3.471-6.625h-15.935z" fill="#63312d"/><path d="m60.8 48.123c0 1.1-.9 2-2 2h-47.6c-1.1 0-2-.9-2-2v-9.256c0-1.1.9-2 2-2h38.333c1.1 0 2.88.189 3.955.422l5.356 1.156c1.075.232 1.955 1.322 1.955 2.422v7.256z" fill="#efc36a"/><path d="m58.8 50.623h-47.6c-1.378 0-2.5-1.121-2.5-2.5v-9.256c0-1.379 1.122-2.5 2.5-2.5h38.333c1.134 0 2.956.194 4.061.434l5.356 1.156c1.296.279 2.35 1.585 2.35 2.91v7.256c0 1.379-1.121 2.5-2.5 2.5zm-47.599-13.256c-.827 0-1.5.673-1.5 1.5v9.256c0 .827.673 1.5 1.5 1.5h47.6c.827 0 1.5-.673 1.5-1.5v-7.256c0-.865-.715-1.75-1.561-1.934l-5.356-1.156c-1.047-.226-2.774-.41-3.85-.41z" fill="#63312d"/><path d="m54.8 48.123c0 1.1-.9 2-2 2h-47.6c-1.1 0-2-.9-2-2v-9.256c0-1.1.9-2 2-2h38.334c1.1 0 2.88.189 3.955.422l5.356 1.156c1.075.232 1.955 1.322 1.955 2.422z" fill="#f9dd9d"/><path d="m7.201 38.867h38.334c1.1 0 2.88.189 3.955.422l5.262 1.137c-.195-.936-.976-1.779-1.906-1.98l-5.356-1.156c-1.075-.233-2.855-.422-3.955-.422h-38.334c-1.1 0-2 .9-2 2v9.256c0 1.1.9 2 2 2v-9.256c0-1.1.9-2.001 2-2.001z" fill="#ffeecf"/><path d="m52.8 50.623h-47.6c-1.378 0-2.5-1.121-2.5-2.5v-9.256c0-1.379 1.122-2.5 2.5-2.5h38.333c1.134 0 2.956.194 4.061.434l5.356 1.156c1.296.279 2.35 1.585 2.35 2.91v7.256c0 1.379-1.121 2.5-2.5 2.5zm-47.599-13.256c-.827 0-1.5.673-1.5 1.5v9.256c0 .827.673 1.5 1.5 1.5h47.6c.827 0 1.5-.673 1.5-1.5v-7.256c0-.865-.715-1.75-1.561-1.934l-5.356-1.156c-1.047-.226-2.774-.41-3.85-.41z" fill="#63312d"/><path d="m44.023 36.867-5.375-10.256c-.613-.914-2.015-1.66-3.115-1.66h-16.666c-1.1 0-2.502.746-3.115 1.66l-5.375 10.256z" fill="#f9a287"/><path d="m17.752 28.611c.613-.914 2.015-1.66 3.115-1.66h16.667c.469 0 .992.141 1.486.367l-.371-.707c-.613-.914-2.015-1.66-3.115-1.66h-16.667c-1.1 0-2.502.746-3.115 1.66l-5.375 10.256h3.048z" fill="#ffc8bb"/><path d="m44.023 37.367h-33.645c-.175 0-.337-.092-.428-.241s-.096-.336-.015-.491l5.375-10.256c.735-1.102 2.286-1.928 3.558-1.928h16.667c1.271 0 2.822.826 3.53 1.882l5.402 10.302c.081.155.076.342-.015.491s-.254.241-.429.241zm-32.819-1h31.993l-4.991-9.523c-.496-.733-1.732-1.393-2.672-1.393h-16.667c-.94 0-2.176.659-2.7 1.438z" fill="#63312d"/><path d="m26.176 27.201h-6.151c-.893 0-2.029.605-2.526 1.348l-3.29 6.277h11.967z" fill="#f8f3f3"/><path d="m26.176 35.326h-11.968c-.175 0-.337-.092-.428-.241s-.096-.336-.015-.491l3.29-6.277c.618-.926 1.91-1.615 2.969-1.615h6.151c.276 0 .5.224.5.5v7.625c.001.276-.223.499-.499.499zm-11.141-1h10.641v-6.625h-5.651c-.723 0-1.709.526-2.111 1.126z" fill="#63312d"/><path d="m29.592 34.826h13.362l-3.996-7.625h-9.366z" fill="#f8f3f3"/><path d="m42.954 35.326h-13.362c-.276 0-.5-.224-.5-.5v-7.625c0-.276.224-.5.5-.5h9.366c.186 0 .356.104.443.268l3.996 7.625c.081.155.076.342-.015.491-.09.149-.253.241-.428.241zm-12.862-1h12.035l-3.471-6.625h-8.564z" fill="#63312d"/><path d="m20.614 50.121c0 2.758-2.233 4.992-4.989 4.992-2.757 0-4.99-2.234-4.99-4.992 0-2.754 2.233-4.988 4.99-4.988 2.756 0 4.989 2.234 4.989 4.988z" fill="#84dbff"/><path d="m15.625 55.613c-3.027 0-5.49-2.464-5.49-5.492 0-3.026 2.463-5.488 5.49-5.488s5.489 2.462 5.489 5.488c0 3.028-2.462 5.492-5.489 5.492zm0-9.98c-2.476 0-4.49 2.014-4.49 4.488 0 2.477 2.014 4.492 4.49 4.492s4.489-2.016 4.489-4.492c0-2.475-2.013-4.488-4.489-4.488z" fill="#63312d"/><path d="m15.625 55.113c2.756 0 4.989-2.234 4.989-4.992 0-2.754-2.233-4.988-4.989-4.988h-2.808v9.98z" fill="#52b8d9"/><path d="m15.625 55.613h-2.808c-.276 0-.5-.224-.5-.5v-9.98c0-.276.224-.5.5-.5h2.808c3.027 0 5.489 2.462 5.489 5.488 0 3.028-2.462 5.492-5.489 5.492zm-2.308-1h2.308c2.476 0 4.489-2.016 4.489-4.492 0-2.475-2.014-4.488-4.489-4.488h-2.308z" fill="#63312d"/><path d="m17.807 50.121c0 2.758-2.233 4.992-4.989 4.992-2.757 0-4.99-2.234-4.99-4.992 0-2.754 2.233-4.988 4.99-4.988 2.755 0 4.989 2.234 4.989 4.988z" fill="#84dbff"/><path d="m12.817 55.613c-3.027 0-5.49-2.464-5.49-5.492 0-3.026 2.463-5.488 5.49-5.488s5.489 2.462 5.489 5.488c.001 3.028-2.462 5.492-5.489 5.492zm0-9.98c-2.476 0-4.49 2.014-4.49 4.488 0 2.477 2.014 4.492 4.49 4.492s4.489-2.016 4.489-4.492c.001-2.475-2.013-4.488-4.489-4.488z" fill="#63312d"/><path d="m14.77 50.121c0 1.08-.874 1.955-1.953 1.955s-1.953-.875-1.953-1.955c0-1.078.874-1.953 1.953-1.953s1.953.875 1.953 1.953z" fill="#f8f3f3"/><path d="m12.817 52.576c-1.353 0-2.453-1.102-2.453-2.455s1.1-2.453 2.453-2.453 2.453 1.101 2.453 2.453c0 1.354-1.1 2.455-2.453 2.455zm0-3.908c-.801 0-1.453.652-1.453 1.453 0 .803.652 1.455 1.453 1.455s1.453-.652 1.453-1.455c0-.801-.652-1.453-1.453-1.453z" fill="#63312d"/><path d="m51.962 50.121c0 2.758-2.233 4.992-4.989 4.992-2.757 0-4.99-2.234-4.99-4.992 0-2.754 2.233-4.988 4.99-4.988 2.756 0 4.989 2.234 4.989 4.988z" fill="#84dbff"/><path d="m46.973 55.613c-3.027 0-5.49-2.464-5.49-5.492 0-3.026 2.463-5.488 5.49-5.488s5.489 2.462 5.489 5.488c0 3.028-2.462 5.492-5.489 5.492zm0-9.98c-2.476 0-4.49 2.014-4.49 4.488 0 2.477 2.014 4.492 4.49 4.492s4.489-2.016 4.489-4.492c0-2.475-2.013-4.488-4.489-4.488z" fill="#63312d"/><path d="m46.973 55.113c2.756 0 4.989-2.234 4.989-4.992 0-2.754-2.233-4.988-4.989-4.988h-2.808v9.98z" fill="#52b8d9"/><path d="m46.973 55.613h-2.808c-.276 0-.5-.224-.5-.5v-9.98c0-.276.224-.5.5-.5h2.808c3.027 0 5.489 2.462 5.489 5.488 0 3.028-2.462 5.492-5.489 5.492zm-2.307-1h2.308c2.476 0 4.489-2.016 4.489-4.492 0-2.475-2.014-4.488-4.489-4.488h-2.308z" fill="#63312d"/><path d="m49.155 50.121c0 2.758-2.233 4.992-4.989 4.992-2.757 0-4.99-2.234-4.99-4.992 0-2.754 2.233-4.988 4.99-4.988 2.755 0 4.989 2.234 4.989 4.988z" fill="#84dbff"/><path d="m44.166 55.613c-3.027 0-5.49-2.464-5.49-5.492 0-3.026 2.463-5.488 5.49-5.488s5.489 2.462 5.489 5.488c0 3.028-2.463 5.492-5.489 5.492zm0-9.98c-2.476 0-4.49 2.014-4.49 4.488 0 2.477 2.014 4.492 4.49 4.492s4.489-2.016 4.489-4.492c0-2.475-2.014-4.488-4.489-4.488z" fill="#63312d"/><path d="m46.118 50.121c0 1.08-.874 1.955-1.953 1.955s-1.953-.875-1.953-1.955c0-1.078.874-1.953 1.953-1.953s1.953.875 1.953 1.953z" fill="#f8f3f3"/><path d="m44.166 52.576c-1.353 0-2.453-1.102-2.453-2.455s1.1-2.453 2.453-2.453 2.453 1.101 2.453 2.453c-.001 1.354-1.101 2.455-2.453 2.455zm0-3.908c-.801 0-1.453.652-1.453 1.453 0 .803.652 1.455 1.453 1.455s1.453-.652 1.453-1.455c-.001-.801-.653-1.453-1.453-1.453z" fill="#63312d"/><path d="m30.332 39.598h3.031v1h-3.031z" fill="#63312d"/><path d="m20.195 21.221h2v3.73h-2z" fill="#f8f3f3"/><path d="m26.195 21.221h2v3.73h-2z" fill="#f8f3f3"/><path d="m32.201 21.221h2v3.73h-2z" fill="#f8f3f3"/><path d="m38.201 21.221h2v3.73h-2z" fill="#f8f3f3"/><g fill="#63312d"><path d="m22.195 25.451h-2c-.276 0-.5-.224-.5-.5v-3.73c0-.276.224-.5.5-.5h2c.276 0 .5.224.5.5v3.73c0 .277-.224.5-.5.5zm-1.5-1h1v-2.73h-1z"/><path d="m28.195 25.451h-2c-.276 0-.5-.224-.5-.5v-3.73c0-.276.224-.5.5-.5h2c.276 0 .5.224.5.5v3.73c0 .277-.224.5-.5.5zm-1.5-1h1v-2.73h-1z"/><path d="m34.201 25.451h-2c-.276 0-.5-.224-.5-.5v-3.73c0-.276.224-.5.5-.5h2c.276 0 .5.224.5.5v3.73c0 .277-.224.5-.5.5zm-1.5-1h1v-2.73h-1z"/><path d="m40.201 25.451h-2c-.276 0-.5-.224-.5-.5v-3.73c0-.276.224-.5.5-.5h2c.276 0 .5.224.5.5v3.73c0 .277-.224.5-.5.5zm-1.5-1h1v-2.73h-1z"/></g><path d="m48.57 22.221h-30.744c-.552 0-1-.447-1-1s.448-1 1-1h30.744c.552 0 1 .447 1 1s-.448 1-1 1z" fill="#d1d1d1"/><path d="m48.57 22.721h-30.744c-.827 0-1.5-.673-1.5-1.5s.673-1.5 1.5-1.5h30.744c.827 0 1.5.673 1.5 1.5s-.673 1.5-1.5 1.5zm-30.744-2c-.276 0-.5.225-.5.5s.224.5.5.5h30.744c.276 0 .5-.225.5-.5s-.224-.5-.5-.5z" fill="#63312d"/><path d="m42.57 22.221h-30.744c-.552 0-1-.447-1-1s.448-1 1-1h30.744c.552 0 1 .447 1 1s-.448 1-1 1z" fill="#f8f3f3"/><path d="m42.57 22.721h-30.744c-.827 0-1.5-.673-1.5-1.5s.673-1.5 1.5-1.5h30.744c.827 0 1.5.673 1.5 1.5s-.673 1.5-1.5 1.5zm-30.744-2c-.276 0-.5.225-.5.5s.224.5.5.5h30.744c.276 0 .5-.225.5-.5s-.224-.5-.5-.5z" fill="#63312d"/><path d="m23.694 15.449c0-1.1-.9-2-2-2h-3.807c-1.1 0-2 .9-2 2v2.771c0 1.1.9 2 2 2h3.807c1.1 0 2-.9 2-2z" fill="#f9a287"/><path d="m19.887 15.449h3.807c0-1.1-.9-2-2-2h-3.807c-1.1 0-2 .9-2 2v2.771c0 1.1.9 2 2 2v-2.771c0-1.099.9-2 2-2z" fill="#ffc8bb"/><path d="m21.694 20.721h-3.807c-1.378 0-2.5-1.121-2.5-2.5v-2.771c0-1.379 1.122-2.5 2.5-2.5h3.807c1.378 0 2.5 1.121 2.5 2.5v2.771c0 1.379-1.122 2.5-2.5 2.5zm-3.807-6.772c-.827 0-1.5.673-1.5 1.5v2.771c0 .827.673 1.5 1.5 1.5h3.807c.827 0 1.5-.673 1.5-1.5v-2.771c0-.827-.673-1.5-1.5-1.5z" fill="#63312d"/><path d="m37.59 10.887c0-1.1-.9-2-2-2h-6.231c-1.1 0-2 .9-2 2v7.334c0 1.1.9 2 2 2h6.231c1.1 0 2-.9 2-2z" fill="#efc36a"/><path d="m35.59 20.721h-6.231c-1.378 0-2.5-1.121-2.5-2.5v-7.334c0-1.379 1.122-2.5 2.5-2.5h6.231c1.378 0 2.5 1.121 2.5 2.5v7.334c0 1.379-1.122 2.5-2.5 2.5zm-6.231-11.334c-.827 0-1.5.673-1.5 1.5v7.334c0 .827.673 1.5 1.5 1.5h6.231c.827 0 1.5-.673 1.5-1.5v-7.334c0-.827-.673-1.5-1.5-1.5z" fill="#63312d"/><path d="m31.59 10.887c0-1.1-.9-2-2-2h-6.231c-1.1 0-2 .9-2 2v7.334c0 1.1.9 2 2 2h6.231c1.1 0 2-.9 2-2z" fill="#f9dd9d"/><path d="m25.359 10.887h6.231c0-1.1-.9-2-2-2h-6.231c-1.1 0-2 .9-2 2v7.334c0 1.1.9 2 2 2v-7.334c0-1.1.9-2 2-2z" fill="#ffeecf"/><path d="m29.59 20.721h-6.231c-1.378 0-2.5-1.121-2.5-2.5v-7.334c0-1.379 1.122-2.5 2.5-2.5h6.231c1.378 0 2.5 1.121 2.5 2.5v7.334c0 1.379-1.122 2.5-2.5 2.5zm-6.231-11.334c-.827 0-1.5.673-1.5 1.5v7.334c0 .827.673 1.5 1.5 1.5h6.231c.827 0 1.5-.673 1.5-1.5v-7.334c0-.827-.673-1.5-1.5-1.5z" fill="#63312d"/><path d="m44.166 16.443c0-1.1-.9-2-2-2h-5.903c-1.1 0-2 .9-2 2v1.777c0 1.1.9 2 2 2h5.903c1.1 0 2-.9 2-2z" fill="#db785a"/><path d="m42.166 20.721h-5.903c-1.378 0-2.5-1.121-2.5-2.5v-1.777c0-1.379 1.122-2.5 2.5-2.5h5.903c1.378 0 2.5 1.121 2.5 2.5v1.777c0 1.379-1.122 2.5-2.5 2.5zm-5.904-5.778c-.827 0-1.5.673-1.5 1.5v1.777c0 .827.673 1.5 1.5 1.5h5.903c.827 0 1.5-.673 1.5-1.5v-1.777c0-.827-.673-1.5-1.5-1.5z" fill="#63312d"/><path d="m38.166 16.443c0-1.1-.9-2-2-2h-3.807c-1.1 0-2 .9-2 2v1.777c0 1.1.9 2 2 2h3.807c1.1 0 2-.9 2-2z" fill="#f9a287"/><path d="m34.359 16.443h3.807c0-1.1-.9-2-2-2h-3.807c-1.1 0-2 .9-2 2v1.777c0 1.1.9 2 2 2v-1.777c0-1.099.9-2 2-2z" fill="#ffc8bb"/><path d="m36.166 20.721h-3.807c-1.378 0-2.5-1.121-2.5-2.5v-1.777c0-1.379 1.122-2.5 2.5-2.5h3.807c1.378 0 2.5 1.121 2.5 2.5v1.777c0 1.379-1.122 2.5-2.5 2.5zm-3.807-5.778c-.827 0-1.5.673-1.5 1.5v1.777c0 .827.673 1.5 1.5 1.5h3.807c.827 0 1.5-.673 1.5-1.5v-1.777c0-.827-.673-1.5-1.5-1.5z" fill="#63312d"/><path d="m23.684 11.824h1v6.084h-1z" fill="#63312d"/><path d="m25.783 11.824h1v6.084h-1z" fill="#63312d"/><path d="m27.881 11.824h1v6.084h-1z" fill="#63312d"/></svg>